# xmcd
#
# Track frame offsets: 
#        150
#        13820
#        29952
#        49217
#        67695
#        81962
#        98662
#        113092
#        129437
#        144910
#        158702
#        172955
#        191132
#        205777
#        219745
#        234587
#        251240
#        263592
#        274890
#        285305
#        302690
#        317755
#        330672
#
# Disc length: 4603 seconds
#
# Revision: 6
# Processed by: cddbd v1.5.2PL0 Copyright (c) Steve Scherf et al.
# Submitted via: ExactAudioCopyFreeDBPlugin 1.0
#
DISCID=4b11f917
DTITLE=Various Artist - The Complete Stax-Volt Singles, 1959-1975
DYEAR=1994
DGENRE=Soul
TTITLE0=The Bar-Kays - Dance, Dance, Dance (Part 1)
TTITLE1=The Temprees - Dedicated to the One I Love
TTITLE2=The Dramatics - Toast to the Fool
TTITLE3=Johnnie Taylor - Stop Doggin' Me
TTITLE4=Frederick Knight - Trouble
TTITLE5=Little Milton - I'm Gonna Cry a River
TTITLE6=Rufus Thomas - Itch and Scratch (Part 1)
TTITLE7=Ernie Hines - What Would I Do
TTITLE8=Veda Brown - I Know It's Not Right
TTITLE9=Stefan - Holy Cow
TTITLE10=Sons of Slum - What Goes Around (Must Come Around)
TTITLE11=Isaac Hayes - Theme from "The Men" (instrumental)
TTITLE12=Mavis Staples - Endlessly
TTITLE13=Inez Foxx - You Hurt Me for the Last Time
TTITLE14=John Gary Williams - My Sweet Lord
TTITLE15=Albert King - Breaking Up Somebody's Home
TTITLE16=Katie Love - How Can You Mistreat the One You Love
TTITLE17=The Emotions - From Toys to Boys
TTITLE18=Roy Lee Johnson and The Villagers - The Dryer (vocal) (Part 1)
TTITLE19=Carla Thomas - I May Not Be All You Want (But I'm All You Got
TTITLE19=)
TTITLE20=Major Lance - Ain't No Sweat
TTITLE21=Jean Knight - Do Me
TTITLE22=Little Milton - Rainy Day
EXTD=
EXTT0=
EXTT1=
EXTT2=
EXTT3=
EXTT4=
EXTT5=
EXTT6=
EXTT7=
EXTT8=
EXTT9=
EXTT10=
EXTT11=
EXTT12=
EXTT13=
EXTT14=
EXTT15=
EXTT16=
EXTT17=
EXTT18=
EXTT19=
EXTT20=
EXTT21=
EXTT22=
PLAYORDER=
